<?xml version="1.0" encoding="UTF-8" standalone="no"?>
<!DOCTYPE svg PUBLIC "-//W3C//DTD SVG 1.1//EN"
 "http://www.w3.org/Graphics/SVG/1.1/DTD/svg11.dtd">
<!-- Generated by graphviz version 2.43.0 (0)
 -->
<!-- Title: seq Pages: 1 -->
<svg width="340pt" height="783pt"
 viewBox="0.00 0.00 340.00 783.00" xmlns="http://www.w3.org/2000/svg" xmlns:xlink="http://www.w3.org/1999/xlink">
<g id="graph0" class="graph" transform="scale(1 1) rotate(0) translate(4 779)">
<title>seq</title>
<polygon fill="white" stroke="transparent" points="-4,4 -4,-779 336,-779 336,4 -4,4"/>
<text text-anchor="middle" x="166" y="-7" font-family="Times,serif" font-size="10.00">Tex — live decision path: POST /evaluate (code&#45;derived order)</text>
<!-- s0 -->
<g id="node1" class="node">
<title>s0</title>
<path fill="#f3efe9" stroke="black" d="M208,-775C208,-775 124,-775 124,-775 118,-775 112,-769 112,-763 112,-763 112,-751 112,-751 112,-745 118,-739 124,-739 124,-739 208,-739 208,-739 214,-739 220,-745 220,-751 220,-751 220,-763 220,-763 220,-769 214,-775 208,-775"/>
<text text-anchor="middle" x="166" y="-760" font-family="Helvetica,sans-Serif" font-size="10.00">POST /evaluate</text>
<text text-anchor="middle" x="166" y="-749" font-family="Helvetica,sans-Serif" font-size="10.00">[api/routes.py:116]</text>
</g>
<!-- s1 -->
<g id="node2" class="node">
<title>s1</title>
<path fill="#f3efe9" stroke="black" d="M245,-703C245,-703 87,-703 87,-703 81,-703 75,-697 75,-691 75,-691 75,-679 75,-679 75,-673 81,-667 87,-667 87,-667 245,-667 245,-667 251,-667 257,-673 257,-679 257,-679 257,-691 257,-691 257,-697 251,-703 245,-703"/>
<text text-anchor="middle" x="166" y="-688" font-family="Helvetica,sans-Serif" font-size="10.00">EvaluateActionCommand.execute</text>
<text text-anchor="middle" x="166" y="-677" font-family="Helvetica,sans-Serif" font-size="10.00">[commands/evaluate_action.py]</text>
</g>
<!-- s0&#45;&gt;s1 -->
<g id="edge1" class="edge">
<title>s0&#45;&gt;s1</title>
<path fill="none" stroke="#14110d" d="M166,-738.7C166,-730.98 166,-721.71 166,-713.11"/>
<polygon fill="#14110d" stroke="#14110d" points="169.5,-713.1 166,-703.1 162.5,-713.1 169.5,-713.1"/>
</g>
<!-- s2 -->
<g id="node3" class="node">
<title>s2</title>
<path fill="#f3efe9" stroke="black" d="M233,-631C233,-631 99,-631 99,-631 93,-631 87,-625 87,-619 87,-619 87,-607 87,-607 87,-601 93,-595 99,-595 99,-595 233,-595 233,-595 239,-595 245,-601 245,-607 245,-607 245,-619 245,-619 245,-625 239,-631 233,-631"/>
<text text-anchor="middle" x="166" y="-616" font-family="Helvetica,sans-Serif" font-size="10.00">PolicyDecisionPoint.evaluate</text>
<text text-anchor="middle" x="166" y="-605" font-family="Helvetica,sans-Serif" font-size="10.00">[engine/pdp.py:205]</text>
</g>
<!-- s1&#45;&gt;s2 -->
<g id="edge2" class="edge">
<title>s1&#45;&gt;s2</title>
<path fill="none" stroke="#14110d" d="M166,-666.7C166,-658.98 166,-649.71 166,-641.11"/>
<polygon fill="#14110d" stroke="#14110d" points="169.5,-641.1 166,-631.1 162.5,-641.1 169.5,-641.1"/>
</g>
<!-- s3 -->
<g id="node4" class="node">
<title>s3</title>
<path fill="#f3efe9" stroke="black" d="M270,-559C270,-559 62,-559 62,-559 56,-559 50,-553 50,-547 50,-547 50,-535 50,-535 50,-529 56,-523 62,-523 62,-523 270,-523 270,-523 276,-523 282,-529 282,-535 282,-535 282,-547 282,-547 282,-553 276,-559 270,-559"/>
<text text-anchor="middle" x="166" y="-544" font-family="Helvetica,sans-Serif" font-size="10.00">deterministic gate + structural FORBID floor</text>
<text text-anchor="middle" x="166" y="-533" font-family="Helvetica,sans-Serif" font-size="10.00">[engine/pdp.py:284]</text>
</g>
<!-- s2&#45;&gt;s3 -->
<g id="edge3" class="edge">
<title>s2&#45;&gt;s3</title>
<path fill="none" stroke="#14110d" d="M166,-594.7C166,-586.98 166,-577.71 166,-569.11"/>
<polygon fill="#14110d" stroke="#14110d" points="169.5,-569.1 166,-559.1 162.5,-569.1 169.5,-569.1"/>
</g>
<!-- s4 -->
<g id="node5" class="node">
<title>s4</title>
<path fill="#f3efe9" stroke="black" d="M279,-487C279,-487 53,-487 53,-487 47,-487 41,-481 41,-475 41,-475 41,-463 41,-463 41,-457 47,-451 53,-451 53,-451 279,-451 279,-451 285,-451 291,-457 291,-463 291,-463 291,-475 291,-475 291,-481 285,-487 279,-487"/>
<text text-anchor="middle" x="166" y="-472" font-family="Helvetica,sans-Serif" font-size="10.00">contract enforcement (LTLf) → PERMIT?ABSTAIN</text>
<text text-anchor="middle" x="166" y="-461" font-family="Helvetica,sans-Serif" font-size="10.00">[engine/pdp.py:349]</text>
</g>
<!-- s3&#45;&gt;s4 -->
<g id="edge4" class="edge">
<title>s3&#45;&gt;s4</title>
<path fill="none" stroke="#14110d" d="M166,-522.7C166,-514.98 166,-505.71 166,-497.11"/>
<polygon fill="#14110d" stroke="#14110d" points="169.5,-497.1 166,-487.1 162.5,-497.1 169.5,-497.1"/>
</g>
<!-- s5 -->
<g id="node6" class="node">
<title>s5</title>
<path fill="#f3efe9" stroke="black" d="M263.5,-415C263.5,-415 68.5,-415 68.5,-415 62.5,-415 56.5,-409 56.5,-403 56.5,-403 56.5,-391 56.5,-391 56.5,-385 62.5,-379 68.5,-379 68.5,-379 263.5,-379 263.5,-379 269.5,-379 275.5,-385 275.5,-391 275.5,-391 275.5,-403 275.5,-403 275.5,-409 269.5,-415 263.5,-415"/>
<text text-anchor="middle" x="166" y="-400" font-family="Helvetica,sans-Serif" font-size="10.00">conformal calibration → PERMIT?ABSTAIN</text>
<text text-anchor="middle" x="166" y="-389" font-family="Helvetica,sans-Serif" font-size="10.00">[engine/pdp.py:361]</text>
</g>
<!-- s4&#45;&gt;s5 -->
<g id="edge5" class="edge">
<title>s4&#45;&gt;s5</title>
<path fill="none" stroke="#14110d" d="M166,-450.7C166,-442.98 166,-433.71 166,-425.11"/>
<polygon fill="#14110d" stroke="#14110d" points="169.5,-425.1 166,-415.1 162.5,-425.1 169.5,-425.1"/>
</g>
<!-- s6 -->
<g id="node7" class="node">
<title>s6</title>
<path fill="#f3efe9" stroke="black" d="M265.5,-343C265.5,-343 66.5,-343 66.5,-343 60.5,-343 54.5,-337 54.5,-331 54.5,-331 54.5,-319 54.5,-319 54.5,-313 60.5,-307 66.5,-307 66.5,-307 265.5,-307 265.5,-307 271.5,-307 277.5,-313 277.5,-319 277.5,-319 277.5,-331 277.5,-331 277.5,-337 271.5,-343 265.5,-343"/>
<text text-anchor="middle" x="166" y="-328" font-family="Helvetica,sans-Serif" font-size="10.00">build typed ABSTAIN hold (engine/hold.py)</text>
<text text-anchor="middle" x="166" y="-317" font-family="Helvetica,sans-Serif" font-size="10.00">[engine/pdp.py:381]</text>
</g>
<!-- s5&#45;&gt;s6 -->
<g id="edge6" class="edge">
<title>s5&#45;&gt;s6</title>
<path fill="none" stroke="#14110d" d="M166,-378.7C166,-370.98 166,-361.71 166,-353.11"/>
<polygon fill="#14110d" stroke="#14110d" points="169.5,-353.1 166,-343.1 162.5,-353.1 169.5,-353.1"/>
</g>
<!-- s7 -->
<g id="node8" class="node">
<title>s7</title>
<path fill="#f3efe9" stroke="black" d="M279.5,-271C279.5,-271 52.5,-271 52.5,-271 46.5,-271 40.5,-265 40.5,-259 40.5,-259 40.5,-247 40.5,-247 40.5,-241 46.5,-235 52.5,-235 52.5,-235 279.5,-235 279.5,-235 285.5,-235 291.5,-241 291.5,-247 291.5,-247 291.5,-259 291.5,-259 291.5,-265 285.5,-271 279.5,-271"/>
<text text-anchor="middle" x="166" y="-256" font-family="Helvetica,sans-Serif" font-size="10.00">EvidenceRecorder.record (hash&#45;chained, signed)</text>
<text text-anchor="middle" x="166" y="-245" font-family="Helvetica,sans-Serif" font-size="10.00">[evidence/recorder.py]</text>
</g>
<!-- s6&#45;&gt;s7 -->
<g id="edge7" class="edge">
<title>s6&#45;&gt;s7</title>
<path fill="none" stroke="#14110d" d="M166,-306.7C166,-298.98 166,-289.71 166,-281.11"/>
<polygon fill="#14110d" stroke="#14110d" points="169.5,-281.1 166,-271.1 162.5,-281.1 169.5,-281.1"/>
</g>
<!-- s8 -->
<g id="node9" class="node">
<title>s8</title>
<path fill="#f3efe9" stroke="black" d="M301,-199C301,-199 31,-199 31,-199 25,-199 19,-193 19,-187 19,-187 19,-175 19,-175 19,-169 25,-163 31,-163 31,-163 301,-163 301,-163 307,-163 313,-169 313,-175 313,-175 313,-187 313,-187 313,-193 307,-199 301,-199"/>
<text text-anchor="middle" x="166" y="-184" font-family="Helvetica,sans-Serif" font-size="10.00">signature provider (composite&#45;ML&#45;DSA→ECDSA fallback)</text>
<text text-anchor="middle" x="166" y="-173" font-family="Helvetica,sans-Serif" font-size="10.00">[evidence/seal.py]</text>
</g>
<!-- s7&#45;&gt;s8 -->
<g id="edge8" class="edge">
<title>s7&#45;&gt;s8</title>
<path fill="none" stroke="#14110d" d="M166,-234.7C166,-226.98 166,-217.71 166,-209.11"/>
<polygon fill="#14110d" stroke="#14110d" points="169.5,-209.1 166,-199.1 162.5,-209.1 169.5,-209.1"/>
</g>
<!-- s9 -->
<g id="node10" class="node">
<title>s9</title>
<path fill="#f3efe9" stroke="black" d="M274.5,-127C274.5,-127 57.5,-127 57.5,-127 51.5,-127 45.5,-121 45.5,-115 45.5,-115 45.5,-103 45.5,-103 45.5,-97 51.5,-91 57.5,-91 57.5,-91 274.5,-91 274.5,-91 280.5,-91 286.5,-97 286.5,-103 286.5,-103 286.5,-115 286.5,-115 286.5,-121 280.5,-127 274.5,-127"/>
<text text-anchor="middle" x="166" y="-112" font-family="Helvetica,sans-Serif" font-size="10.00">EvaluateResponseDTO.from_command_result</text>
<text text-anchor="middle" x="166" y="-101" font-family="Helvetica,sans-Serif" font-size="10.00">[api/routes.py:147]</text>
</g>
<!-- s8&#45;&gt;s9 -->
<g id="edge9" class="edge">
<title>s8&#45;&gt;s9</title>
<path fill="none" stroke="#14110d" d="M166,-162.7C166,-154.98 166,-145.71 166,-137.11"/>
<polygon fill="#14110d" stroke="#14110d" points="169.5,-137.1 166,-127.1 162.5,-137.1 169.5,-137.1"/>
</g>
<!-- s10 -->
<g id="node11" class="node">
<title>s10</title>
<path fill="#f3efe9" stroke="black" d="M249.5,-55C249.5,-55 82.5,-55 82.5,-55 76.5,-55 70.5,-49 70.5,-43 70.5,-43 70.5,-31 70.5,-31 70.5,-25 76.5,-19 82.5,-19 82.5,-19 249.5,-19 249.5,-19 255.5,-19 261.5,-25 261.5,-31 261.5,-31 261.5,-43 261.5,-43 261.5,-49 255.5,-55 249.5,-55"/>
<text text-anchor="middle" x="166" y="-40" font-family="Helvetica,sans-Serif" font-size="10.00">Verdict: PERMIT | ABSTAIN | FORBID</text>
<text text-anchor="middle" x="166" y="-29" font-family="Helvetica,sans-Serif" font-size="10.00">[domain/verdict.py]</text>
</g>
<!-- s9&#45;&gt;s10 -->
<g id="edge10" class="edge">
<title>s9&#45;&gt;s10</title>
<path fill="none" stroke="#14110d" d="M166,-90.7C166,-82.98 166,-73.71 166,-65.11"/>
<polygon fill="#14110d" stroke="#14110d" points="169.5,-65.1 166,-55.1 162.5,-65.1 169.5,-65.1"/>
</g>
</g>
</svg>
