<?xml version="1.0" encoding="UTF-8" standalone="no"?>
<!DOCTYPE svg PUBLIC "-//W3C//DTD SVG 1.1//EN"
 "http://www.w3.org/Graphics/SVG/1.1/DTD/svg11.dtd">
<!-- Generated by graphviz version 2.43.0 (0)
 -->
<!-- Title: layers Pages: 1 -->
<svg width="1442pt" height="267pt"
 viewBox="0.00 0.00 1442.00 267.00" xmlns="http://www.w3.org/2000/svg" xmlns:xlink="http://www.w3.org/1999/xlink">
<g id="graph0" class="graph" transform="scale(1 1) rotate(0) translate(4 263)">
<title>layers</title>
<polygon fill="white" stroke="transparent" points="-4,4 -4,-263 1438,-263 1438,4 -4,4"/>
<text text-anchor="middle" x="717" y="-7" font-family="Helvetica,sans-Serif" font-size="10.00">Tex — layer architecture (code&#45;derived). green=mostly wired, amber=mostly parked. n=modules, w/p=wired/parked</text>
<!-- API___Surface -->
<g id="node1" class="node">
<title>API___Surface</title>
<path fill="#1f6f43" stroke="black" d="M457.5,-259C457.5,-259 300.5,-259 300.5,-259 294.5,-259 288.5,-253 288.5,-247 288.5,-247 288.5,-215 288.5,-215 288.5,-209 294.5,-203 300.5,-203 300.5,-203 457.5,-203 457.5,-203 463.5,-203 469.5,-209 469.5,-215 469.5,-215 469.5,-247 469.5,-247 469.5,-253 463.5,-259 457.5,-259"/>
<text text-anchor="middle" x="379" y="-246.2" font-family="Helvetica,sans-Serif" font-size="11.00" fill="white">API / Surface</text>
<text text-anchor="middle" x="379" y="-234.2" font-family="Helvetica,sans-Serif" font-size="11.00" fill="white">26 modules · 13305 LOC</text>
<text text-anchor="middle" x="379" y="-222.2" font-family="Helvetica,sans-Serif" font-size="11.00" fill="white">REAL 150 / THIN 114 / STUB 7</text>
<text text-anchor="middle" x="379" y="-210.2" font-family="Helvetica,sans-Serif" font-size="11.00" fill="white">wired 26 · parked 0</text>
</g>
<!-- Engine___Decision -->
<g id="node3" class="node">
<title>Engine___Decision</title>
<path fill="#1f6f43" stroke="black" d="M657,-167C657,-167 493,-167 493,-167 487,-167 481,-161 481,-155 481,-155 481,-123 481,-123 481,-117 487,-111 493,-111 493,-111 657,-111 657,-111 663,-111 669,-117 669,-123 669,-123 669,-155 669,-155 669,-161 663,-167 657,-167"/>
<text text-anchor="middle" x="575" y="-154.2" font-family="Helvetica,sans-Serif" font-size="11.00" fill="white">Engine / Decision</text>
<text text-anchor="middle" x="575" y="-142.2" font-family="Helvetica,sans-Serif" font-size="11.00" fill="white">60 modules · 16619 LOC</text>
<text text-anchor="middle" x="575" y="-130.2" font-family="Helvetica,sans-Serif" font-size="11.00" fill="white">REAL 219 / THIN 246 / STUB 15</text>
<text text-anchor="middle" x="575" y="-118.2" font-family="Helvetica,sans-Serif" font-size="11.00" fill="white">wired 60 · parked 0</text>
</g>
<!-- API___Surface&#45;&gt;Engine___Decision -->
<g id="edge1" class="edge">
<title>API___Surface&#45;&gt;Engine___Decision</title>
<path fill="none" stroke="#14110d" stroke-width="2" d="M437.81,-203C459.51,-193.03 484.29,-181.65 506.75,-171.34"/>
<polygon fill="#14110d" stroke="#14110d" stroke-width="2" points="508.27,-174.49 515.9,-167.14 505.35,-168.13 508.27,-174.49"/>
</g>
<!-- Voice___Vigil -->
<g id="node2" class="node">
<title>Voice___Vigil</title>
<path fill="#1f6f43" stroke="black" d="M162,-75C162,-75 12,-75 12,-75 6,-75 0,-69 0,-63 0,-63 0,-31 0,-31 0,-25 6,-19 12,-19 12,-19 162,-19 162,-19 168,-19 174,-25 174,-31 174,-31 174,-63 174,-63 174,-69 168,-75 162,-75"/>
<text text-anchor="middle" x="87" y="-62.2" font-family="Helvetica,sans-Serif" font-size="11.00" fill="white">Voice / Vigil</text>
<text text-anchor="middle" x="87" y="-50.2" font-family="Helvetica,sans-Serif" font-size="11.00" fill="white">21 modules · 5381 LOC</text>
<text text-anchor="middle" x="87" y="-38.2" font-family="Helvetica,sans-Serif" font-size="11.00" fill="white">REAL 104 / THIN 90 / STUB 5</text>
<text text-anchor="middle" x="87" y="-26.2" font-family="Helvetica,sans-Serif" font-size="11.00" fill="white">wired 21 · parked 0</text>
</g>
<!-- Engine___Decision&#45;&gt;Voice___Vigil -->
<g id="edge8" class="edge">
<title>Engine___Decision&#45;&gt;Voice___Vigil</title>
<path fill="none" stroke="#14110d" stroke-width="2" d="M480.97,-125.98C403.62,-115.37 291.04,-98.31 184.02,-75.13"/>
<polygon fill="#14110d" stroke="#14110d" stroke-width="2" points="184.53,-71.66 174.01,-72.94 183.03,-78.5 184.53,-71.66"/>
</g>
<!-- Monitoring___Observability -->
<g id="node6" class="node">
<title>Monitoring___Observability</title>
<path fill="#1f6f43" stroke="black" d="M347.5,-75C347.5,-75 204.5,-75 204.5,-75 198.5,-75 192.5,-69 192.5,-63 192.5,-63 192.5,-31 192.5,-31 192.5,-25 198.5,-19 204.5,-19 204.5,-19 347.5,-19 347.5,-19 353.5,-19 359.5,-25 359.5,-31 359.5,-31 359.5,-63 359.5,-63 359.5,-69 353.5,-75 347.5,-75"/>
<text text-anchor="middle" x="276" y="-62.2" font-family="Helvetica,sans-Serif" font-size="11.00" fill="white">Monitoring / Observability</text>
<text text-anchor="middle" x="276" y="-50.2" font-family="Helvetica,sans-Serif" font-size="11.00" fill="white">11 modules · 3515 LOC</text>
<text text-anchor="middle" x="276" y="-38.2" font-family="Helvetica,sans-Serif" font-size="11.00" fill="white">REAL 46 / THIN 46 / STUB 0</text>
<text text-anchor="middle" x="276" y="-26.2" font-family="Helvetica,sans-Serif" font-size="11.00" fill="white">wired 10 · parked 1</text>
</g>
<!-- Engine___Decision&#45;&gt;Monitoring___Observability -->
<g id="edge4" class="edge">
<title>Engine___Decision&#45;&gt;Monitoring___Observability</title>
<path fill="none" stroke="#14110d" stroke-width="2" d="M485.29,-111C448.66,-99.97 406.29,-87.22 369.29,-76.08"/>
<polygon fill="#14110d" stroke="#14110d" stroke-width="2" points="370.1,-72.67 359.51,-73.14 368.08,-79.37 370.1,-72.67"/>
</g>
<!-- Execution_Governance -->
<g id="node7" class="node">
<title>Execution_Governance</title>
<path fill="#1f6f43" stroke="black" d="M554,-75C554,-75 390,-75 390,-75 384,-75 378,-69 378,-63 378,-63 378,-31 378,-31 378,-25 384,-19 390,-19 390,-19 554,-19 554,-19 560,-19 566,-25 566,-31 566,-31 566,-63 566,-63 566,-69 560,-75 554,-75"/>
<text text-anchor="middle" x="472" y="-62.2" font-family="Helvetica,sans-Serif" font-size="11.00" fill="white">Execution Governance</text>
<text text-anchor="middle" x="472" y="-50.2" font-family="Helvetica,sans-Serif" font-size="11.00" fill="white">115 modules · 31358 LOC</text>
<text text-anchor="middle" x="472" y="-38.2" font-family="Helvetica,sans-Serif" font-size="11.00" fill="white">REAL 371 / THIN 340 / STUB 23</text>
<text text-anchor="middle" x="472" y="-26.2" font-family="Helvetica,sans-Serif" font-size="11.00" fill="white">wired 103 · parked 12</text>
</g>
<!-- Engine___Decision&#45;&gt;Execution_Governance -->
<g id="edge2" class="edge">
<title>Engine___Decision&#45;&gt;Execution_Governance</title>
<path fill="none" stroke="#14110d" stroke-width="2" d="M544.1,-111C533.7,-101.91 521.97,-91.66 511.03,-82.1"/>
<polygon fill="#14110d" stroke="#14110d" stroke-width="2" points="513.07,-79.24 503.24,-75.29 508.46,-84.51 513.07,-79.24"/>
</g>
<!-- Evidence___Crypto -->
<g id="node8" class="node">
<title>Evidence___Crypto</title>
<path fill="#1f6f43" stroke="black" d="M760,-75C760,-75 596,-75 596,-75 590,-75 584,-69 584,-63 584,-63 584,-31 584,-31 584,-25 590,-19 596,-19 596,-19 760,-19 760,-19 766,-19 772,-25 772,-31 772,-31 772,-63 772,-63 772,-69 766,-75 760,-75"/>
<text text-anchor="middle" x="678" y="-62.2" font-family="Helvetica,sans-Serif" font-size="11.00" fill="white">Evidence / Crypto</text>
<text text-anchor="middle" x="678" y="-50.2" font-family="Helvetica,sans-Serif" font-size="11.00" fill="white">82 modules · 29736 LOC</text>
<text text-anchor="middle" x="678" y="-38.2" font-family="Helvetica,sans-Serif" font-size="11.00" fill="white">REAL 350 / THIN 241 / STUB 21</text>
<text text-anchor="middle" x="678" y="-26.2" font-family="Helvetica,sans-Serif" font-size="11.00" fill="white">wired 67 · parked 15</text>
</g>
<!-- Engine___Decision&#45;&gt;Evidence___Crypto -->
<g id="edge3" class="edge">
<title>Engine___Decision&#45;&gt;Evidence___Crypto</title>
<path fill="none" stroke="#14110d" stroke-width="2" d="M605.9,-111C616.3,-101.91 628.03,-91.66 638.97,-82.1"/>
<polygon fill="#14110d" stroke="#14110d" stroke-width="2" points="641.54,-84.51 646.76,-75.29 636.93,-79.24 641.54,-84.51"/>
</g>
<!-- Learning -->
<g id="node9" class="node">
<title>Learning</title>
<path fill="#1f6f43" stroke="black" d="M945.5,-75C945.5,-75 802.5,-75 802.5,-75 796.5,-75 790.5,-69 790.5,-63 790.5,-63 790.5,-31 790.5,-31 790.5,-25 796.5,-19 802.5,-19 802.5,-19 945.5,-19 945.5,-19 951.5,-19 957.5,-25 957.5,-31 957.5,-31 957.5,-63 957.5,-63 957.5,-69 951.5,-75 945.5,-75"/>
<text text-anchor="middle" x="874" y="-62.2" font-family="Helvetica,sans-Serif" font-size="11.00" fill="white">Learning</text>
<text text-anchor="middle" x="874" y="-50.2" font-family="Helvetica,sans-Serif" font-size="11.00" fill="white">16 modules · 5690 LOC</text>
<text text-anchor="middle" x="874" y="-38.2" font-family="Helvetica,sans-Serif" font-size="11.00" fill="white">REAL 83 / THIN 45 / STUB 5</text>
<text text-anchor="middle" x="874" y="-26.2" font-family="Helvetica,sans-Serif" font-size="11.00" fill="white">wired 16 · parked 0</text>
</g>
<!-- Engine___Decision&#45;&gt;Learning -->
<g id="edge5" class="edge">
<title>Engine___Decision&#45;&gt;Learning</title>
<path fill="none" stroke="#14110d" stroke-width="2" d="M664.71,-111C701.34,-99.97 743.71,-87.22 780.71,-76.08"/>
<polygon fill="#14110d" stroke="#14110d" stroke-width="2" points="781.92,-79.37 790.49,-73.14 779.9,-72.67 781.92,-79.37"/>
</g>
<!-- Ecosystem___Systemic -->
<g id="node10" class="node">
<title>Ecosystem___Systemic</title>
<path fill="#1f6f43" stroke="black" d="M1138,-75C1138,-75 988,-75 988,-75 982,-75 976,-69 976,-63 976,-63 976,-31 976,-31 976,-25 982,-19 988,-19 988,-19 1138,-19 1138,-19 1144,-19 1150,-25 1150,-31 1150,-31 1150,-63 1150,-63 1150,-69 1144,-75 1138,-75"/>
<text text-anchor="middle" x="1063" y="-62.2" font-family="Helvetica,sans-Serif" font-size="11.00" fill="white">Ecosystem / Systemic</text>
<text text-anchor="middle" x="1063" y="-50.2" font-family="Helvetica,sans-Serif" font-size="11.00" fill="white">38 modules · 13711 LOC</text>
<text text-anchor="middle" x="1063" y="-38.2" font-family="Helvetica,sans-Serif" font-size="11.00" fill="white">REAL 164 / THIN 82 / STUB 3</text>
<text text-anchor="middle" x="1063" y="-26.2" font-family="Helvetica,sans-Serif" font-size="11.00" fill="white">wired 38 · parked 0</text>
</g>
<!-- Engine___Decision&#45;&gt;Ecosystem___Systemic -->
<g id="edge9" class="edge">
<title>Engine___Decision&#45;&gt;Ecosystem___Systemic</title>
<path fill="none" stroke="#14110d" stroke-width="2" d="M669.03,-125.98C746.38,-115.37 858.96,-98.31 965.98,-75.13"/>
<polygon fill="#14110d" stroke="#14110d" stroke-width="2" points="966.97,-78.5 975.99,-72.94 965.47,-71.66 966.97,-78.5"/>
</g>
<!-- Discovery___Inventory -->
<g id="node4" class="node">
<title>Discovery___Inventory</title>
<path fill="#1f6f43" stroke="black" d="M650,-259C650,-259 500,-259 500,-259 494,-259 488,-253 488,-247 488,-247 488,-215 488,-215 488,-209 494,-203 500,-203 500,-203 650,-203 650,-203 656,-203 662,-209 662,-215 662,-215 662,-247 662,-247 662,-253 656,-259 650,-259"/>
<text text-anchor="middle" x="575" y="-246.2" font-family="Helvetica,sans-Serif" font-size="11.00" fill="white">Discovery / Inventory</text>
<text text-anchor="middle" x="575" y="-234.2" font-family="Helvetica,sans-Serif" font-size="11.00" fill="white">28 modules · 6706 LOC</text>
<text text-anchor="middle" x="575" y="-222.2" font-family="Helvetica,sans-Serif" font-size="11.00" fill="white">REAL 111 / THIN 90 / STUB 5</text>
<text text-anchor="middle" x="575" y="-210.2" font-family="Helvetica,sans-Serif" font-size="11.00" fill="white">wired 28 · parked 0</text>
</g>
<!-- Discovery___Inventory&#45;&gt;Engine___Decision -->
<g id="edge6" class="edge">
<title>Discovery___Inventory&#45;&gt;Engine___Decision</title>
<path fill="none" stroke="#14110d" stroke-width="2" d="M575,-203C575,-194.97 575,-186.03 575,-177.47"/>
<polygon fill="#14110d" stroke="#14110d" stroke-width="2" points="578.5,-177.29 575,-167.29 571.5,-177.3 578.5,-177.29"/>
</g>
<!-- Identity___Access___Provenance -->
<g id="node5" class="node">
<title>Identity___Access___Provenance</title>
<path fill="#1f6f43" stroke="black" d="M852,-259C852,-259 692,-259 692,-259 686,-259 680,-253 680,-247 680,-247 680,-215 680,-215 680,-209 686,-203 692,-203 692,-203 852,-203 852,-203 858,-203 864,-209 864,-215 864,-215 864,-247 864,-247 864,-253 858,-259 852,-259"/>
<text text-anchor="middle" x="772" y="-246.2" font-family="Helvetica,sans-Serif" font-size="11.00" fill="white">Identity / Access / Provenance</text>
<text text-anchor="middle" x="772" y="-234.2" font-family="Helvetica,sans-Serif" font-size="11.00" fill="white">20 modules · 8071 LOC</text>
<text text-anchor="middle" x="772" y="-222.2" font-family="Helvetica,sans-Serif" font-size="11.00" fill="white">REAL 85 / THIN 116 / STUB 14</text>
<text text-anchor="middle" x="772" y="-210.2" font-family="Helvetica,sans-Serif" font-size="11.00" fill="white">wired 18 · parked 2</text>
</g>
<!-- Identity___Access___Provenance&#45;&gt;Engine___Decision -->
<g id="edge7" class="edge">
<title>Identity___Access___Provenance&#45;&gt;Engine___Decision</title>
<path fill="none" stroke="#14110d" stroke-width="2" d="M712.89,-203C691.08,-193.03 666.18,-181.65 643.59,-171.34"/>
<polygon fill="#14110d" stroke="#14110d" stroke-width="2" points="644.96,-168.11 634.4,-167.14 642.05,-174.48 644.96,-168.11"/>
</g>
<!-- Compliance -->
<g id="node11" class="node">
<title>Compliance</title>
<path fill="#b0852a" stroke="black" d="M1024,-259C1024,-259 894,-259 894,-259 888,-259 882,-253 882,-247 882,-247 882,-215 882,-215 882,-209 888,-203 894,-203 894,-203 1024,-203 1024,-203 1030,-203 1036,-209 1036,-215 1036,-215 1036,-247 1036,-247 1036,-253 1030,-259 1024,-259"/>
<text text-anchor="middle" x="959" y="-246.2" font-family="Helvetica,sans-Serif" font-size="11.00" fill="white">Compliance</text>
<text text-anchor="middle" x="959" y="-234.2" font-family="Helvetica,sans-Serif" font-size="11.00" fill="white">14 modules · 1907 LOC</text>
<text text-anchor="middle" x="959" y="-222.2" font-family="Helvetica,sans-Serif" font-size="11.00" fill="white">REAL 7 / THIN 6 / STUB 3</text>
<text text-anchor="middle" x="959" y="-210.2" font-family="Helvetica,sans-Serif" font-size="11.00" fill="white">wired 0 · parked 14</text>
</g>
<!-- Parked__pending -->
<g id="node12" class="node">
<title>Parked__pending</title>
<path fill="#b0852a" stroke="black" d="M1216,-259C1216,-259 1066,-259 1066,-259 1060,-259 1054,-253 1054,-247 1054,-247 1054,-215 1054,-215 1054,-209 1060,-203 1066,-203 1066,-203 1216,-203 1216,-203 1222,-203 1228,-209 1228,-215 1228,-215 1228,-247 1228,-247 1228,-253 1222,-259 1216,-259"/>
<text text-anchor="middle" x="1141" y="-246.2" font-family="Helvetica,sans-Serif" font-size="11.00" fill="white">Parked: _pending</text>
<text text-anchor="middle" x="1141" y="-234.2" font-family="Helvetica,sans-Serif" font-size="11.00" fill="white">34 modules · 2490 LOC</text>
<text text-anchor="middle" x="1141" y="-222.2" font-family="Helvetica,sans-Serif" font-size="11.00" fill="white">REAL 16 / THIN 12 / STUB 10</text>
<text text-anchor="middle" x="1141" y="-210.2" font-family="Helvetica,sans-Serif" font-size="11.00" fill="white">wired 0 · parked 34</text>
</g>
<!-- Plumbing___Stores -->
<g id="node13" class="node">
<title>Plumbing___Stores</title>
<path fill="#1f6f43" stroke="black" d="M1422,-259C1422,-259 1258,-259 1258,-259 1252,-259 1246,-253 1246,-247 1246,-247 1246,-215 1246,-215 1246,-209 1252,-203 1258,-203 1258,-203 1422,-203 1422,-203 1428,-203 1434,-209 1434,-215 1434,-215 1434,-247 1434,-247 1434,-253 1428,-259 1422,-259"/>
<text text-anchor="middle" x="1340" y="-246.2" font-family="Helvetica,sans-Serif" font-size="11.00" fill="white">Plumbing / Stores</text>
<text text-anchor="middle" x="1340" y="-234.2" font-family="Helvetica,sans-Serif" font-size="11.00" fill="white">59 modules · 15987 LOC</text>
<text text-anchor="middle" x="1340" y="-222.2" font-family="Helvetica,sans-Serif" font-size="11.00" fill="white">REAL 192 / THIN 372 / STUB 13</text>
<text text-anchor="middle" x="1340" y="-210.2" font-family="Helvetica,sans-Serif" font-size="11.00" fill="white">wired 52 · parked 7</text>
</g>
</g>
</svg>
