<?xml version="1.0" encoding="UTF-8" standalone="no"?>
<!DOCTYPE svg PUBLIC "-//W3C//DTD SVG 1.1//EN"
 "http://www.w3.org/Graphics/SVG/1.1/DTD/svg11.dtd">
<!-- Generated by graphviz version 2.43.0 (0)
 -->
<!-- Title: rt Pages: 1 -->
<svg width="633pt" height="339pt"
 viewBox="0.00 0.00 633.00 339.00" xmlns="http://www.w3.org/2000/svg" xmlns:xlink="http://www.w3.org/1999/xlink">
<g id="graph0" class="graph" transform="scale(1 1) rotate(0) translate(4 335)">
<title>rt</title>
<polygon fill="white" stroke="transparent" points="-4,4 -4,-335 629,-335 629,4 -4,4"/>
<text text-anchor="middle" x="312.5" y="-7" font-family="Times,serif" font-size="10.00">Tex — runtime/concurrency topology (code&#45;derived spawn sites)</text>
<!-- uvicorn -->
<g id="node1" class="node">
<title>uvicorn</title>
<path fill="#14110d" stroke="black" d="M108,-187.5C108,-187.5 12,-187.5 12,-187.5 6,-187.5 0,-181.5 0,-175.5 0,-175.5 0,-163.5 0,-163.5 0,-157.5 6,-151.5 12,-151.5 12,-151.5 108,-151.5 108,-151.5 114,-151.5 120,-157.5 120,-163.5 120,-163.5 120,-175.5 120,-175.5 120,-181.5 114,-187.5 108,-187.5"/>
<text text-anchor="middle" x="60" y="-172.5" font-family="Helvetica,sans-Serif" font-size="10.00" fill="white">uvicorn tex.main:app</text>
<text text-anchor="middle" x="60" y="-161.5" font-family="Helvetica,sans-Serif" font-size="10.00" fill="white">(ASGI worker)</text>
</g>
<!-- lifespan -->
<g id="node2" class="node">
<title>lifespan</title>
<path fill="#f3efe9" stroke="black" d="M331,-320C331,-320 234,-320 234,-320 228,-320 222,-314 222,-308 222,-308 222,-291 222,-291 222,-285 228,-279 234,-279 234,-279 331,-279 331,-279 337,-279 343,-285 343,-291 343,-291 343,-308 343,-308 343,-314 337,-320 331,-320"/>
<text text-anchor="middle" x="282.5" y="-308" font-family="Helvetica,sans-Serif" font-size="10.00">FastAPI lifespan hook</text>
<text text-anchor="middle" x="282.5" y="-297" font-family="Helvetica,sans-Serif" font-size="10.00">main.py:1257</text>
<text text-anchor="middle" x="282.5" y="-286" font-family="Helvetica,sans-Serif" font-size="10.00">start/stop scheduler</text>
</g>
<!-- uvicorn&#45;&gt;lifespan -->
<g id="edge1" class="edge">
<title>uvicorn&#45;&gt;lifespan</title>
<path fill="none" stroke="black" d="M73.16,-187.7C89.34,-210.42 120.11,-248.81 156,-269.5 172.94,-279.26 192.92,-285.86 211.89,-290.31"/>
<polygon fill="black" stroke="black" points="211.19,-293.74 221.7,-292.44 212.68,-286.9 211.19,-293.74"/>
</g>
<!-- alerts_py356 -->
<g id="node3" class="node">
<title>alerts_py356</title>
<path fill="#f3efe9" stroke="black" d="M329.5,-260.5C329.5,-260.5 235.5,-260.5 235.5,-260.5 229.5,-260.5 223.5,-254.5 223.5,-248.5 223.5,-248.5 223.5,-220.5 223.5,-220.5 223.5,-214.5 229.5,-208.5 235.5,-208.5 235.5,-208.5 329.5,-208.5 329.5,-208.5 335.5,-208.5 341.5,-214.5 341.5,-220.5 341.5,-220.5 341.5,-248.5 341.5,-248.5 341.5,-254.5 335.5,-260.5 329.5,-260.5"/>
<text text-anchor="middle" x="282.5" y="-248.5" font-family="Helvetica,sans-Serif" font-size="10.00">threading.Thread</text>
<text text-anchor="middle" x="282.5" y="-237.5" font-family="Helvetica,sans-Serif" font-size="10.00">alerts.py:356</text>
<text text-anchor="middle" x="282.5" y="-226.5" font-family="Helvetica,sans-Serif" font-size="10.00">alert dispatch thread</text>
<text text-anchor="middle" x="282.5" y="-215.5" font-family="Helvetica,sans-Serif" font-size="10.00">drift/threshold alerts</text>
</g>
<!-- uvicorn&#45;&gt;alerts_py356 -->
<g id="edge2" class="edge">
<title>uvicorn&#45;&gt;alerts_py356</title>
<path fill="none" stroke="black" d="M116.91,-187.5C129.73,-191.53 143.32,-195.73 156,-199.5 174.56,-205.02 194.75,-210.76 213.39,-215.96"/>
<polygon fill="black" stroke="black" points="212.7,-219.4 223.27,-218.7 214.58,-212.65 212.7,-219.4"/>
</g>
<!-- __main___py64 -->
<g id="node5" class="node">
<title>__main___py64</title>
<path fill="#b0852a" stroke="black" d="M397,-190C397,-190 168,-190 168,-190 162,-190 156,-184 156,-178 156,-178 156,-161 156,-161 156,-155 162,-149 168,-149 168,-149 397,-149 397,-149 403,-149 409,-155 409,-161 409,-161 409,-178 409,-178 409,-184 403,-190 397,-190"/>
<text text-anchor="middle" x="282.5" y="-178" font-family="Helvetica,sans-Serif" font-size="10.00" fill="white">threading.Thread</text>
<text text-anchor="middle" x="282.5" y="-167" font-family="Helvetica,sans-Serif" font-size="10.00" fill="white">__main__.py:64</text>
<text text-anchor="middle" x="282.5" y="-156" font-family="Helvetica,sans-Serif" font-size="10.00" fill="white">operator CLI worker thread (separate entrypoint)</text>
</g>
<!-- uvicorn&#45;&gt;__main___py64 -->
<g id="edge4" class="edge">
<title>uvicorn&#45;&gt;__main___py64</title>
<path fill="none" stroke="black" d="M120.09,-169.5C128.25,-169.5 136.88,-169.5 145.75,-169.5"/>
<polygon fill="black" stroke="black" points="145.85,-173 155.85,-169.5 145.85,-166 145.85,-173"/>
</g>
<!-- feed_py233 -->
<g id="node6" class="node">
<title>feed_py233</title>
<path fill="#f3efe9" stroke="black" d="M363.5,-130.5C363.5,-130.5 201.5,-130.5 201.5,-130.5 195.5,-130.5 189.5,-124.5 189.5,-118.5 189.5,-118.5 189.5,-90.5 189.5,-90.5 189.5,-84.5 195.5,-78.5 201.5,-78.5 201.5,-78.5 363.5,-78.5 363.5,-78.5 369.5,-78.5 375.5,-84.5 375.5,-90.5 375.5,-90.5 375.5,-118.5 375.5,-118.5 375.5,-124.5 369.5,-130.5 363.5,-130.5"/>
<text text-anchor="middle" x="282.5" y="-118.5" font-family="Helvetica,sans-Serif" font-size="10.00">threading.Thread</text>
<text text-anchor="middle" x="282.5" y="-107.5" font-family="Helvetica,sans-Serif" font-size="10.00">feed.py:233</text>
<text text-anchor="middle" x="282.5" y="-96.5" font-family="Helvetica,sans-Serif" font-size="10.00">ContinuousProvenanceFeed thread</text>
<text text-anchor="middle" x="282.5" y="-85.5" font-family="Helvetica,sans-Serif" font-size="10.00">held&#45;decision sink</text>
</g>
<!-- uvicorn&#45;&gt;feed_py233 -->
<g id="edge5" class="edge">
<title>uvicorn&#45;&gt;feed_py233</title>
<path fill="none" stroke="black" d="M119.49,-151.48C131.55,-147.81 144.18,-144 156,-140.5 163.89,-138.16 172.06,-135.77 180.28,-133.37"/>
<polygon fill="black" stroke="black" points="181.32,-136.72 189.94,-130.57 179.36,-130 181.32,-136.72"/>
</g>
<!-- llm_bridge_py113 -->
<g id="node7" class="node">
<title>llm_bridge_py113</title>
<path fill="#f3efe9" stroke="black" d="M347.5,-60C347.5,-60 217.5,-60 217.5,-60 211.5,-60 205.5,-54 205.5,-48 205.5,-48 205.5,-31 205.5,-31 205.5,-25 211.5,-19 217.5,-19 217.5,-19 347.5,-19 347.5,-19 353.5,-19 359.5,-25 359.5,-31 359.5,-31 359.5,-48 359.5,-48 359.5,-54 353.5,-60 347.5,-60"/>
<text text-anchor="middle" x="282.5" y="-48" font-family="Helvetica,sans-Serif" font-size="10.00">threading.Thread</text>
<text text-anchor="middle" x="282.5" y="-37" font-family="Helvetica,sans-Serif" font-size="10.00">llm_bridge.py:113</text>
<text text-anchor="middle" x="282.5" y="-26" font-family="Helvetica,sans-Serif" font-size="10.00">specialist LLM bridge thread</text>
</g>
<!-- uvicorn&#45;&gt;llm_bridge_py113 -->
<g id="edge6" class="edge">
<title>uvicorn&#45;&gt;llm_bridge_py113</title>
<path fill="none" stroke="black" d="M73.16,-151.3C89.34,-128.58 120.11,-90.19 156,-69.5 168.1,-62.52 181.76,-57.17 195.49,-53.05"/>
<polygon fill="black" stroke="black" points="196.79,-56.33 205.48,-50.27 194.91,-49.58 196.79,-56.33"/>
</g>
<!-- scheduler_py154 -->
<g id="node4" class="node">
<title>scheduler_py154</title>
<path fill="#f3efe9" stroke="black" d="M613,-331C613,-331 457,-331 457,-331 451,-331 445,-325 445,-319 445,-319 445,-280 445,-280 445,-274 451,-268 457,-268 457,-268 613,-268 613,-268 619,-268 625,-274 625,-280 625,-280 625,-319 625,-319 625,-325 619,-331 613,-331"/>
<text text-anchor="middle" x="535" y="-319" font-family="Helvetica,sans-Serif" font-size="10.00">threading.Thread</text>
<text text-anchor="middle" x="535" y="-308" font-family="Helvetica,sans-Serif" font-size="10.00">scheduler.py:154</text>
<text text-anchor="middle" x="535" y="-297" font-family="Helvetica,sans-Serif" font-size="10.00">BackgroundScanScheduler thread</text>
<text text-anchor="middle" x="535" y="-286" font-family="Helvetica,sans-Serif" font-size="10.00">scans tenants on interval</text>
<text text-anchor="middle" x="535" y="-275" font-family="Helvetica,sans-Serif" font-size="10.00">touches discovery ledger</text>
</g>
<!-- lifespan&#45;&gt;scheduler_py154 -->
<g id="edge3" class="edge">
<title>lifespan&#45;&gt;scheduler_py154</title>
<path fill="none" stroke="black" d="M343.18,-299.5C370.49,-299.5 403.58,-299.5 434.49,-299.5"/>
<polygon fill="black" stroke="black" points="434.87,-303 444.87,-299.5 434.87,-296 434.87,-303"/>
</g>
</g>
</svg>
